#!OML:ASF E:\Style6\Style6.ASF
:FULLY-SPECIFIED
:DEGREES
2060
root 1.25964 17.1146 0.153262 4.63504 -20.3636 11.7925
lowerback 13.9629 0.953645 10.5051
upperback 6.3208 2.68531 15.8006
thorax -1.30016 1.18354 11.0059
lowerneck -4.46524 1.43888 10.0312
upperneck 16.0007 -0.0563337 5.40787
head 5.65375 0.889168 0.0531107
rclavicle -1.90833e-014 4.13472e-014
rhumerus 34.6201 -55.0117 -27.6507
rradius 55.0648
rwrist 37.2653
rhand 28.3411 4.13953
rfingers 7.12502
rthumb 52.2095 -15.8409
lclavicle -1.90833e-014 4.13472e-014
lhumerus -93.2419 -49.1293 126.892
lradius 100.337
lwrist 31.1617
lhand -1.0302 10.4724
lfingers 7.12502
lthumb 24.6033 38.9112
rfemur -37.334 -3.42348 3.00551
rtibia 50.7092
rfoot -14.7607 8.78634
rtoes -7.62703
lfemur -25.3626 18.7337 -37.341
ltibia 39.8169
lfoot -17.431 7.51062
ltoes -13.096
2061
root 1.23866 17.1587 0.162908 4.83381 -20.4003 11.2004
lowerback 13.7798 0.921026 10.4537
upperback 6.22443 2.61787 15.6978
thorax -1.29745 1.15183 10.9199
lowerneck -4.90137 1.41217 9.76532
upperneck 15.8713 -0.025007 4.9123
head 5.68021 0.857624 -0.0572136
rclavicle -4.13472e-014 -6.67916e-014
rhumerus 34.47 -54.8862 -27.4816
rradius 55.0912
rwrist 36.9916
rhand 28.2078 3.9741
rfingers 7.12502
rthumb 52.0887 -16.0787
lclavicle -4.13472e-014 -6.67916e-014
lhumerus -92.8229 -48.9566 126.563
lradius 100.153
lwrist 30.9288
lhand -0.912125 10.4427
lfingers 7.12502
lthumb 24.7164 38.866
rfemur -36.806 -3.06586 3.67224
rtibia 49.8623
rfoot -14.4136 8.65955
rtoes -5.84797
lfemur -24.99 18.2596 -36.6177
ltibia 39.2525
lfoot -17.0502 8.10004
ltoes -14.3044
2062
root 1.21596 17.1987 0.171654 5.00998 -20.5248 10.6449
lowerback 13.5804 0.899992 10.3106
upperback 6.17933 2.54005 15.5759
thorax -1.23225 1.11405 10.866
lowerneck -5.2546 1.43051 9.56929
upperneck 15.6663 0.0879339 4.3446
head 5.67127 0.858948 -0.196644
rclavicle 3.18055e-014 1.59028e-014
rhumerus 34.4692 -54.7465 -27.5123
rradius 55.1362
rwrist 36.7537
rhand 28.0797 3.85186
rfingers 7.12502
rthumb 51.9725 -16.2701
lclavicle 3.18055e-014 1.59028e-014
lhumerus -92.2393 -48.7743 126.047
lradius 99.9821
lwrist 30.7863
lhand -0.631735 10.6324
lfingers 7.12502
lthumb 24.9851 39.0187
rfemur -36.318 -2.65597 4.30098
rtibia 49.0322
rfoot -14.0711 8.50263
rtoes -4.25983
lfemur -24.5874 17.8303 -35.9286
ltibia 38.6276
lfoot -16.6609 8.63953
ltoes -14.8029
2063
root 1.19313 17.2359 0.18148 5.01913 -20.7218 10.519
lowerback 13.3904 0.896615 9.75762
upperback 6.08593 2.45279 15.3251
thorax -1.24172 1.0707 10.8932
lowerneck -5.4272 1.447 9.46008
upperneck 15.4976 0.212788 3.73929
head 5.64484 0.867635 -0.361519
rclavicle -5.725e-014 -1.87653e-013
rhumerus 34.3543 -54.5114 -27.4507
rradius 55.1586
rwrist 36.5319
rhand 27.9973 3.86128
rfingers 7.12502
rthumb 51.8977 -16.3049
lclavicle -5.725e-014 -1.87653e-013
lhumerus -91.8203 -48.5072 125.619
lradius 99.8042
lwrist 30.7104
lhand -0.460281 10.7595
lfingers 7.12502
lthumb 25.1494 39.1229
rfemur -35.8714 -2.32262 4.49166
rtibia 48.228
rfoot -13.8678 8.17335
rtoes -5.43643
lfemur -24.111 17.4459 -35.6693
ltibia 37.9586
lfoot -16.3815 9.03848
ltoes -14.437
2064
root 1.1692 17.2798 0.19336 4.99436 -20.8479 10.3601
lowerback 13.2142 0.87001 9.2723
upperback 5.92867 2.36035 15.0956
thorax -1.32366 1.02579 10.9092
lowerneck -5.36897 1.42652 9.23671
upperneck 15.1682 0.320164 3.24368
head 5.52745 0.85996 -0.476116
rclavicle 2.22639e-014 -9.54166e-015
rhumerus 34.0753 -54.1945 -27.2817
rradius 55.2285
rwrist 36.4573
rhand 27.8389 3.90883
rfingers 7.12502
rthumb 51.7539 -16.3418
lclavicle 2.22639e-014 -9.54166e-015
lhumerus -91.6009 -48.2212 125.409
lradius 99.5918
lwrist 30.5713
lhand -0.266209 10.7506
lfingers 7.12502
lthumb 25.3354 39.0878
rfemur -35.3001 -2.00357 4.7103
rtibia 47.3976
rfoot -13.6605 7.9344
rtoes -5.93587
lfemur -23.5493 17.0386 -35.3548
ltibia 37.305
lfoot -16.1673 9.46885
ltoes -14.3271
